#!OML:ASF I:\Actors\actors\Patient Classification 1\Patient 1\Session 1\Subject1.ASF
:FULLY-SPECIFIED
:DEGREES
599
root 0.774995 17.4706 9.73794 9.63946 -3.29786 -8.53906
lowerback -6.72719 2.90407 8.83649
upperback -7.24435 3.5279 -0.321083
thorax -3.28774 1.37883 -5.13094
lowerneck -5.47522 -5.48732 -5.25056
upperneck 24.3613 -10.3151 13.536
head 9.54024 -4.04447 4.5514
rclavicle 3.0911e-014 1.98785e-014
rhumerus 16.3275 38.9129 -69.1434
rradius 135.83
rwrist -25.6747
rhand 3.62571 -68.3534
rfingers 7.12502
rthumb 29.0583 -263.893
lclavicle 3.0911e-014 1.98785e-014
lhumerus -66.5759 53.793 27.0801
lradius 27.1287
lwrist -9.92712
lhand -37.1467 -27.5388
lfingers 7.12502
lthumb -10.2162 2.19315
rfemur -1.78699 26.8306 25.3617
rtibia 1.90714
rfoot -13.2183 -26.8392
rtoes 4.7005
lfemur 10.1246 -47.0296 -17.2666
ltibia -5.47722
lfoot -32.2294 56.1006
ltoes 19.6248
600
root 0.774076 17.4713 9.73797 9.63067 -3.32278 -8.51212
lowerback -6.70783 2.91222 8.80166
upperback -7.24763 3.54166 -0.349431
thorax -3.29952 1.38591 -5.14153
lowerneck -5.55383 -5.52546 -5.18578
upperneck 24.2781 -10.3486 13.4633
head 9.52231 -4.06088 4.50554
rclavicle 3.44891e-014 1.11319e-014
rhumerus 16.2067 38.8961 -69.2322
rradius 135.78
rwrist -25.728
rhand 3.66561 -68.3254
rfingers 7.12502
rthumb 29.0964 -263.927
lclavicle 3.44891e-014 1.11319e-014
lhumerus -66.5991 53.8149 27.0103
lradius 27.115
lwrist -10.0179
lhand -37.1124 -27.6011
lfingers 7.12502
lthumb -10.1831 2.13244
rfemur -1.77883 26.8391 25.3292
rtibia 1.88443
rfoot -13.1861 -26.8276
rtoes 4.82292
lfemur 10.1127 -46.9804 -17.2835
ltibia -5.46323
lfoot -32.2235 56.0411
ltoes 19.7014
601
root 0.773258 17.4714 9.73796 9.62244 -3.31997 -8.54064
lowerback -6.69011 2.91807 8.81403
upperback -7.24081 3.55044 -0.354068
thorax -3.30002 1.38987 -5.15348
lowerneck -5.67859 -5.58574 -5.05139
upperneck 24.1964 -10.3914 13.2626
head 9.50377 -4.08538 4.39945
rclavicle 2.98177e-016 -1.11319e-014
rhumerus 16.0745 38.8653 -69.3268
rradius 135.775
rwrist -25.6726
rhand 3.61287 -68.3879
rfingers 7.12502
rthumb 29.046 -263.856
lclavicle 2.98177e-016 -1.11319e-014
lhumerus -66.7079 53.8894 26.8538
lradius 27.1205
lwrist -10.2132
lhand -37.0305 -27.5408
lfingers 7.12502
lthumb -10.1041 2.19661
rfemur -1.76606 26.8561 25.3696
rtibia 1.87876
rfoot -13.1954 -26.8335
rtoes 5.15655
lfemur 10.1319 -46.9911 -17.2661
ltibia -5.45944
lfoot -32.1466 56.0893
ltoes 19.574
602
root 0.772658 17.4707 9.73827 9.61856 -3.31933 -8.5952
lowerback -6.67556 2.90733 8.83982
upperback -7.23648 3.53698 -0.329603
thorax -3.30602 1.38244 -5.14355
lowerneck -5.83206 -5.59572 -4.97225
upperneck 24.0946 -10.376 13.16
head 9.48556 -4.07803 4.34384
rclavicle -2.18663e-015 7.95139e-015
rhumerus 15.9164 38.9137 -69.4634
rradius 135.753
rwrist -25.4732
rhand 3.60914 -68.3657
rfingers 7.12502
rthumb 29.0425 -263.878
lclavicle -2.18663e-015 7.95139e-015
lhumerus -66.8415 53.9178 26.7255
lradius 27.1625
lwrist -10.2849
lhand -36.9611 -27.4123
lfingers 7.12502
lthumb -10.0372 2.3283
rfemur -1.76733 26.8024 25.4361
rtibia 1.89829
rfoot -13.1417 -26.794
rtoes 5.01954
lfemur 10.1594 -46.9866 -17.2195
ltibia -5.47441
lfoot -32.1361 56.117
ltoes 19.4854
603
root 0.772512 17.4706 9.7381 9.61504 -3.32694 -8.62127
lowerback -6.64663 2.8913 8.83549
upperback -7.2343 3.51925 -0.305294
thorax -3.32406 1.37355 -5.11796
lowerneck -6.0806 -5.56816 -4.58166
upperneck 24.01 -10.2988 12.8363
head 9.45664 -4.03012 4.16081
rclavicle -2.78299e-014 -2.3059e-014
rhumerus 15.7657 39.0352 -69.5804
rradius 135.701
rwrist -25.2962
rhand 3.66328 -68.253
rfingers 7.12502
rthumb 29.0942 -263.999
lclavicle -2.78299e-014 -2.3059e-014
lhumerus -66.7194 53.7778 26.9399
lradius 27.2019
lwrist -10.0929
lhand -37.0516 -27.4268
lfingers 7.12502
lthumb -10.1244 2.30958
rfemur -1.77297 26.7677 25.4677
rtibia 1.92842
rfoot -13.1395 -26.7542
rtoes 4.9042
lfemur 10.1697 -46.966 -17.1989
ltibia -5.47034
lfoot -32.2347 56.089
ltoes 19.6043
604
root 0.772817 17.4706 9.73628 9.61902 -3.32281 -8.61618
lowerback -6.59475 2.89454 8.82334
upperback -7.23838 3.52945 -0.319763
thorax -3.35533 1.37731 -5.12849
lowerneck -6.27508 -5.68452 -4.07676
upperneck 23.7259 -10.3381 12.1824
head 9.33401 -4.06898 3.82602
rclavicle 3.18055e-015 7.95139e-015
rhumerus 15.543 39.138 -69.7326
rradius 135.673
rwrist -25.246
rhand 3.71803 -68.229
rfingers 7.12502
rthumb 29.1465 -264.032
lclavicle 3.18055e-015 7.95139e-015
lhumerus -66.4921 53.6262 27.2329
lradius 27.2358
lwrist -9.96767
lhand -37.1665 -27.4828
lfingers 7.12502
lthumb -10.2353 2.24818
rfemur -1.79072 26.8024 25.4607
rtibia 1.95296
rfoot -13.1998 -26.7749
rtoes 4.99787
lfemur 10.123 -46.9343 -17.1754
ltibia -5.43851
lfoot -32.3162 56.0309
ltoes 19.7384
605
root 0.772876 17.4706 9.73417 9.64721 -3.31283 -8.63899
lowerback -6.54717 2.9375 8.87278
upperback -7.25412 3.58969 -0.373233
thorax -3.38447 1.40228 -5.2118
lowerneck -6.4356 -5.84076 -3.09488
upperneck 23.3784 -10.4199 11.1986
head 9.1432 -4.12275 3.29561
rclavicle 7.35503e-015 6.36111e-015
rhumerus 15.1676 39.1668 -69.9972
rradius 135.637
rwrist -25.2875
rhand 3.75467 -68.1956
rfingers 7.12502
rthumb 29.1815 -264.072
lclavicle 7.35503e-015 6.36111e-015
lhumerus -66.2794 53.5704 27.3889
lradius 27.2319
lwrist -10.0322
lhand -37.2152 -27.5154
lfingers 7.12502
lthumb -10.2822 2.21322
rfemur -1.82922 26.8824 25.4792
rtibia 1.95934
rfoot -13.2208 -26.8517
rtoes 5.04793
lfemur 10.0458 -46.926 -17.0834
ltibia -5.43892
lfoot -32.2095 56.0517
ltoes 19.6024
606
root 0.773969 17.471 9.73253 9.71036 -3.29289 -8.72309
lowerback -6.54659 2.9139 8.96284
upperback -7.28127 3.55759 -0.322268
thorax -3.41855 1.38099 -5.21118
lowerneck -6.80621 -5.86408 -2.77594
upperneck 23.2659 -10.39 10.7873
head 9.1313 -4.11123 3.09012
rclavicle -2.5842e-015 7.95139e-016
rhumerus 14.8893 39.4544 -70.1933
rradius 135.537
rwrist -25.3625
rhand 3.67007 -68.0761
rfingers 7.12502
rthumb 29.1007 -264.177
lclavicle -2.5842e-015 7.95139e-016
lhumerus -66.5193 53.6045 27.1928
lradius 27.2597
lwrist -10.0282
lhand -37.2054 -27.5393
lfingers 7.12502
lthumb -10.2728 2.18984
rfemur -1.89947 26.912 25.5467
rtibia 1.95497
rfoot -13.1893 -26.8853
rtoes 5.09149
lfemur 9.92059 -46.9065 -16.8791
ltibia -5.45278
lfoot -32.0464 56.054
ltoes 19.5211
607
root 0.77563 17.4718 9.73137 9.79874 -3.28314 -8.7342
lowerback -6.60527 2.71668 8.88972
upperback -7.32603 3.29844 -0.0899668
thorax -3.48893 1.25514 -4.9388
lowerneck -7.06373 -5.70481 -3.14775
upperneck 23.0835 -10.0809 10.7655
head 9.10694 -3.99869 3.16979
rclavicle -4.67144e-015 -5.56597e-015
rhumerus 14.8394 40.2493 -70.2797
rradius 135.389
rwrist -25.4077
rhand 3.67739 -67.9997
rfingers 7.12502
rthumb 29.1077 -264.255
lclavicle -4.67144e-015 -5.56597e-015
lhumerus -67.6393 53.712 26.4085
lradius 27.422
lwrist -9.85681
lhand -37.1681 -27.4938
lfingers 7.12502
lthumb -10.2369 2.23714
rfemur -2.00922 26.8631 25.4992
rtibia 1.94013
rfoot -13.146 -26.8462
rtoes 5.09703
lfemur 9.76362 -46.9312 -16.7539
ltibia -5.43899
lfoot -32.1335 56.011
ltoes 19.75
608
root 0.77495 17.4726 9.73122 9.87446 -3.30203 -8.67241
lowerback -6.61639 2.81173 8.85341
upperback -7.37325 3.4247 -0.225166
thorax -3.50798 1.31444 -5.05458
lowerneck -7.54169 -5.87069 -3.06824
upperneck 23.042 -10.3646 10.9131
head 9.21285 -4.09369 3.1602
rclavicle -1.42131e-014 -1.66979e-014
rhumerus 14.2302 40.1816 -70.7509
rradius 135.267
rwrist -25.2194
rhand 3.73391 -67.9231
rfingers 7.12502
rthumb 29.1616 -264.341
lclavicle -1.42131e-014 -1.66979e-014
lhumerus -67.2414 53.5674 26.6589
lradius 27.385
lwrist -9.96281
lhand -37.1412 -27.4555
lfingers 7.12502
lthumb -10.2109 2.27668
rfemur -2.1201 26.8395 25.37
rtibia 1.93696
rfoot -13.1272 -26.8119
rtoes 5.00079
lfemur 9.66561 -47.0478 -16.7611
ltibia -5.42656
lfoot -32.432 56.0372
ltoes 20.0177
609
root 0.773714 17.473 9.73106 9.91325 -3.31794 -8.65822
lowerback -6.57611 2.91566 8.85455
upperback -7.43065 3.56733 -0.36143
thorax -3.56224 1.3783 -5.1944
lowerneck -7.86337 -6.00535 -2.71161
upperneck 22.7636 -10.5346 10.719
head 9.16166 -4.16051 3.00064
rclavicle 1.69961e-014 -3.18055e-015
rhumerus 13.544 40.0741 -71.2981
rradius 135.142
rwrist -25.0471
rhand 3.61095 -67.8462
rfingers 7.12502
rthumb 29.0442 -264.398
lclavicle 1.69961e-014 -3.18055e-015
lhumerus -66.795 53.4339 26.8636
lradius 27.2739
lwrist -10.1411
lhand -37.0798 -27.4169
lfingers 7.12502
lthumb -10.1516 2.31815
rfemur -2.18723 26.8346 25.3228
rtibia 1.95181
rfoot -13.1304 -26.7929
rtoes 4.9619
lfemur 9.62924 -47.1199 -16.7509
ltibia -5.42101
lfoot -32.675 56.0573
ltoes 20.1497
